<?xml version="1.0" encoding="utf-8"?>
<!-- Generator: Adobe Illustrator 16.0.0, SVG Export Plug-In . SVG Version: 6.00 Build 0)  -->
<!DOCTYPE svg PUBLIC "-//W3C//DTD SVG 1.1//EN" "http://www.w3.org/Graphics/SVG/1.1/DTD/svg11.dtd">
<svg version="1.1" xmlns="http://www.w3.org/2000/svg" xmlns:xlink="http://www.w3.org/1999/xlink" x="0px" y="0px"
	 width="202.333px" height="33.333px" viewBox="0 0 202.333 33.333" enable-background="new 0 0 202.333 33.333"
	 xml:space="preserve">
<g id="Layer_1">
</g>
<g id="Layer_2">
	<path fill-rule="evenodd" clip-rule="evenodd" fill="none" stroke="#1A1A1A" stroke-width="0.5" stroke-miterlimit="10" d="
		M17.814,13.342c0,0,0.073-0.076,0.116-0.021c0.048,0.058-0.031,0.106-0.08,0.137C17.802,13.491,17.814,13.342,17.814,13.342z
		 M17.808,12.825c0,0-0.018-0.18,0.116-0.149c0.134,0.034,0.591-0.012,0.627,0.027c0.036,0.037,0.097,0.012,0.036,0.143
		c-0.061,0.134-0.109,0.292-0.188,0.274c-0.079-0.018-0.311,0.064-0.42-0.015c-0.104-0.076-0.201-0.116-0.201-0.176
		C17.796,12.624,17.808,12.825,17.808,12.825z M20.287,12.761l3.355,0.091c0,0,0.134,0,0.134,0.097
		c0.006,0.095,0.085,0.219,0.11,0.308c0.024,0.091-0.055,0.027-0.14,0.113c-0.085,0.082,0.061,0.186-0.165,0.188
		c-0.231,0-3.41-0.265-3.41-0.265l-0.189-0.122c0,0,0.116-0.14,0.14-0.216C20.152,12.879,20.287,12.761,20.287,12.761z
		 M25.968,12.977c0,0-0.055,0.137,0.073,0.308c0.146,0.186,0.354,0.377,0.396,0.569c0.073,0.369,0.219,0.907,0.286,1.023
		s0.079,0.085-0.097,0.195c-0.177,0.107-0.219,0.155-0.317,0.122c-0.091-0.037-4.792-0.14-4.792-0.14s-0.183-0.277-0.39-0.417
		c-0.207-0.137-0.183-0.542-0.481-0.716c-0.298-0.173-0.195-0.323-0.195-0.323s0.341,0.006,0.518,0.034
		c0.171,0.024,2.905,0.21,2.905,0.21s0.207,0.198,0.335,0.079c0.122-0.119,0.316-0.387,0.25-0.429
		c-0.073-0.04-0.146,0.015-0.128-0.109c0.012-0.125,0.067-0.055,0.122-0.216c0.055-0.158-0.024-0.186,0.067-0.21
		C24.604,12.931,25.828,12.992,25.968,12.977z M28.75,12.98c0.067-0.067,0.372,0.009,0.505,0.082
		c0.128,0.076-0.268,0.037-0.359,0.024C28.812,13.074,28.702,13.032,28.75,12.98z M31.326,13.994c0,0,2.576,0.119,2.661,0.143
		c0.079,0.027,0.122-0.116,0.152,0.091c0.037,0.21,0.177,0.919,0.195,1.023c0.012,0.106-0.043,0.204-0.14,0.207
		c-0.098,0.003-1.827-0.064-1.906-0.07c-0.073-0.003-0.055,0.137-0.231-0.119C31.88,15.017,31.6,14.8,31.6,14.8L31.326,13.994z
		 M30.894,13.059c0,0,3.209-0.015,3.404,0.003c0.201,0.021,0.353,0.149,0.14,0.158c-0.213,0.009-2.619,0.049-2.783,0.009
		c-0.17-0.04-0.621,0.045-0.755-0.015C30.76,13.153,30.814,13.129,30.894,13.059z M42.141,13.342c0,0,0.219-0.024,0.177,0.048
		c-0.037,0.07-0.037,0.167-0.14,0.085c-0.11-0.079-0.073-0.076-0.073-0.076L42.141,13.342z M44.369,13.373
		c0,0,0.402-0.204,0.469-0.055c0.061,0.152,0.061,0.188,0.116,0.222c0.061,0.034,0.171,0.137,0.061,0.167
		c-0.116,0.03-0.122,0.104-0.225,0.021c-0.104-0.08-0.28-0.238-0.347-0.256C44.375,13.455,44.369,13.373,44.369,13.373z
		 M49.332,14.277l0.024-0.14c0,0,0.188-0.064,0.316-0.061c0.134,0,0.286-0.027,0.11,0.213c-0.177,0.24-0.195,0.268-0.292,0.402
		c-0.098,0.137-0.134,0.17-0.152,0.006C49.313,14.533,49.332,14.277,49.332,14.277z M49.338,13.671c0,0,0.098-0.231,0.152-0.161
		c0.055,0.07,0.085,0.012,0.213-0.009c0.128-0.021,0.28-0.027,0.359,0.037s0.17,0.061,0.024,0.186s-0.377,0.162-0.469,0.149
		C49.533,13.86,49.338,13.671,49.338,13.671z M53.789,14.24c0.271,0.061,0.305,0.003,0.259,0.149
		c-0.045,0.143-0.152,0.064-0.225,0.024C53.752,14.371,53.521,14.179,53.789,14.24z M55.403,15.306
		c0.085,0.049,0.094,0.167,0.055,0.335s-0.122,0.445-0.173,0.302s-0.229-0.399-0.265-0.533c-0.033-0.137,0.07-0.058,0.171-0.094
		C55.287,15.275,55.317,15.257,55.403,15.306z M57.443,15.702c0,0,0.268-0.073,0.365-0.207c0.097-0.134,0.335-0.055,0.396,0.037
		c0.061,0.094,0.012,0.313-0.094,0.463c-0.104,0.146-0.228,0.131-0.347,0.14c-0.119,0.009-0.526,0.058-0.514-0.03
		S57.443,15.702,57.443,15.702z M62.241,14.377c0,0,0.426-0.076,0.493,0.036c0.067,0.116,0.131,0.305,0.058,0.302
		c-0.073-0.006-0.274-0.122-0.353-0.149c-0.083-0.024-0.174-0.061-0.174-0.061S62.177,14.359,62.241,14.377z M63.873,14.423
		c0,0,0.304-0.033,0.195,0.094c-0.113,0.128-0.137,0.171-0.177,0.107C63.849,14.563,63.873,14.423,63.873,14.423z M63.791,15.519
		c0,0,0.356-0.119,0.426,0.058c0.07,0.174-0.112,0.426-0.198,0.341C63.937,15.833,63.791,15.519,63.791,15.519z M66.957,14.49
		c0,0,0.244-0.125,0.192-0.003c-0.052,0.125-0.128,0.289-0.177,0.241C66.923,14.682,66.957,14.49,66.957,14.49z M71.859,15.531
		c0,0,0.286-0.064,0.341,0.006c0.055,0.07,0.031,0.247-0.042,0.241C72.081,15.775,71.859,15.531,71.859,15.531z M71.174,15.004
		c0,0,0.694-0.079,0.767-0.073c0.073,0.003,0,0.095,0.061,0.189c0.061,0.091,0.18,0.085,0.18,0.085s0.119,0.125-0.012,0.122
		c-0.134,0-0.542,0.012-0.542,0.012L71.174,15.004z M70.388,14.551c-0.049-0.079,1.23,0.079,1.349,0.073
		c0.119-0.009,0.423,0.091,0.289,0.128c-0.137,0.036-0.271,0.073-0.493,0.058c-0.219-0.012-0.6,0.055-0.685,0.003
		C70.76,14.764,70.449,14.642,70.388,14.551z M74.252,15.181c0,0,0.082-0.241,0.25-0.238c0.17,0.003,0.019,0.201-0.055,0.329
		c-0.073,0.131-0.28,0.487-0.28,0.621c0,0.131-0.012,0.183-0.158,0.173c-0.146-0.009-0.505-0.045-0.612-0.03
		c-0.106,0.018-0.244-0.006-0.17-0.098c0.07-0.091,0.183,0.012,0.375-0.088c0.188-0.101,0.408-0.28,0.454-0.423
		C74.1,15.282,74.252,15.181,74.252,15.181z M78.383,14.822c0,0,0.012-0.088,0.256-0.079c0.244,0.006,1.495,0.082,1.629,0.082
		s0.247,0.067,0.134,0.229c-0.116,0.165-0.207,0.262-0.201,0.478c0.012,0.213,0.183,0.216,0.128,0.338
		c-0.049,0.125-0.183,0.122-0.238,0.247c-0.049,0.122-0.146,0.219-0.25,0.104c-0.104-0.119-0.42-0.323-0.5-0.481
		c-0.079-0.162-0.155-0.396-0.289-0.396c-0.131,0-0.21,0.034-0.28-0.009c-0.07-0.04-0.383-0.125-0.356-0.244
		C78.447,14.974,78.383,14.822,78.383,14.822z M81.787,14.864c0,0,0.335-0.055,0.448-0.048c0.109,0.009,0.313,0.048,0.091,0.207
		c-0.225,0.155-0.347,0.067-0.438,0.033C81.791,15.02,81.735,14.95,81.787,14.864z M84.232,14.886c0,0,0.932,0.003,1.017,0.015
		c0.088,0.015,0.219,0.088,0.109,0.14c-0.104,0.055-0.807,0.049-0.886,0.021C84.391,15.035,84.232,14.886,84.232,14.886z
		 M87.7,16.201c0.064-0.067,0.265,0.097,0.216,0.222c-0.055,0.122-0.152,0.158-0.213,0.104C87.639,16.472,87.557,16.347,87.7,16.201
		z M87.134,15.038c0,0,0.459-0.003,0.584-0.024c0.128-0.021,0.252,0.088,0.125,0.109c-0.125,0.024-0.423,0.079-0.518,0.043
		C87.231,15.132,87.134,15.038,87.134,15.038z M94.203,15.689c0,0-0.018-0.198,0.073-0.128c0.094,0.073,0.204,0.079,0.25,0.031
		c0.045-0.049,0.143-0.052,0.119,0.03c-0.03,0.079-0.152,0.521-0.152,0.654c0,0.134-0.073,0.226-0.112,0.165
		c-0.04-0.064-0.162-0.247-0.162-0.247S94.331,15.766,94.203,15.689z M94.812,15.26c0,0,0.195-0.17,0.192-0.098
		c-0.006,0.073-0.085,0.18-0.085,0.18L94.812,15.26z M99.656,15.449l1.09-0.036c0,0,0.25-0.046,0.14,0.082
		c-0.11,0.125-0.463,0.834-0.481,1.035c-0.021,0.198-0.027,0.408-0.091,0.42c-0.173,0.037-0.146-0.027-0.469-0.441
		c-0.295-0.371-0.974-0.922-1.559-1.126c-0.098-0.033-0.073-0.137,0.28-0.088c0.35,0.052,0.393,0.076,0.433,0.174
		c0.036,0.101,0.097,0.229,0.219,0.244C99.345,15.726,99.625,15.735,99.656,15.449z M104.351,15.495c0,0,0.664-0.094,0.749-0.042
		c0.085,0.048,0.061,0.225,0.073,0.307c0.009,0.08,0.146,0.14,0.14,0.213c-0.003,0.073,0.024,0.222-0.085,0.085
		c-0.109-0.14-0.335-0.177-0.542-0.314C104.479,15.604,104.46,15.635,104.351,15.495z M106.284,15.449l1.093-0.018
		c0,0,0.271,0.061,0.122,0.222c-0.152,0.162-0.554,0.5-0.6,1.236c-0.018,0.292-0.173,0.167-0.24,0.088
		c-0.07-0.08-0.305-0.137-0.323-0.298c-0.019-0.165-0.143-0.579-0.143-0.579S106.317,15.583,106.284,15.449z M109.319,15.467
		c0,0,2.716,0.082,2.862,0.091c0.146,0.009,0.222-0.024,0.219,0.241c0,0.268,0.033,0.706-0.274,1.403
		c-0.061,0.14-0.137,0.073-0.219,0.082c-0.082,0.009-0.274,0.11-0.353-0.012c-0.082-0.125-0.347-0.752-0.947-1.1
		c-0.162-0.091-0.612-0.429-1.05-0.493c-0.134-0.018-0.454-0.07-0.298-0.173C109.411,15.406,109.319,15.467,109.319,15.467z
		 M113.898,15.653l1.449-0.037c0,0,0.329,0.019,0.329,0.189c-0.003,0.17-0.052,0.35-0.052,0.35s-0.375,0.487-0.497,0.99
		c-0.036,0.164-0.012,0.259-0.207,0.262c-0.191,0.003-1.482-0.037-1.571-0.049c-0.085-0.012-0.316,0.024-0.165-0.308
		c0.152-0.329,0.207-0.792,0.219-0.974c0.012-0.186-0.012-0.18,0.167-0.192C113.752,15.875,113.88,15.778,113.898,15.653z
		 M117.138,15.811c0,0,1.343,0.052,1.425,0.043c0.079-0.012,0.152,0.067,0.183,0.143s0.094,0.396,0.094,0.396
		s0.131,0.076,0.064,0.152c-0.061,0.079-0.116,0.201-0.155,0.14c-0.04-0.064-0.807-0.582-1.157-0.67
		c-0.186-0.045-0.347,0.009-0.399-0.04C117.144,15.93,117.138,15.811,117.138,15.811z M120.907,17.129c0,0,0.055-0.122,0.201-0.149
		c0.152-0.027,0.127-0.021,0.213-0.067c0.085-0.049,0.688-0.043,0.688-0.043l1.644-0.003c0,0,0.165,0.04,0.052,0.201
		c-0.112,0.164-0.411,0.679-0.523,0.746c-0.116,0.067-0.521,0.177-0.572,0.031c-0.052-0.143,0.076-0.165-0.058-0.262
		c-0.134-0.095-1.397,0.012-1.504-0.067c-0.104-0.079-0.137-0.289-0.137-0.289L120.907,17.129z M121.224,15.924
		c0,0-0.019-0.128,0.186-0.122c0.207,0.003,0.399,0.134,0.332,0.25c-0.067,0.113-0.165,0.189-0.098,0.268
		c0.07,0.076,0.25,0.027,0.25,0.027s0.046-0.012,0.116,0.067c0.067,0.079,0.354,0.146,0.429-0.018c0,0,0.287-0.037,0.475-0.031
		c0.244,0.006,0.722-0.003,0.813,0.012c0.085,0.012,0.207,0.195,0.055,0.201c-0.158,0.006-1.553,0.018-1.553,0.018l-0.715-0.049
		c0,0-0.174-0.158-0.241-0.179c-0.067-0.019,0.019-0.028,0.031-0.116C121.315,16.165,121.224,15.924,121.224,15.924z
		 M124.826,17.011c0.003-0.037-0.006-0.155,0.17-0.131c0.173,0.027,1.769,0.034,1.845,0.04c0.073,0.003,0.252-0.009,0.295,0.149
		c0.04,0.158,0.03,0.304,0.03,0.304s-0.091,0.11-0.122,0.18c-0.049,0.122-0.183,0.122-0.256,0.116
		c-0.073-0.003-1.58-0.037-1.58-0.037s-0.155,0.006-0.162-0.112c-0.009-0.119-0.049-0.314-0.049-0.314
		S124.816,17.139,124.826,17.011z M124.832,16.539c0.003-0.073-0.015-0.104,0.149-0.125c0.161-0.018,1.607,0.015,1.681,0.021
		c0.073,0.003,0.244,0.006,0.292,0.055c0.049,0.045,0.189,0.165,0.049,0.18c-0.14,0.012-1.763-0.049-1.763-0.049
		S124.829,16.612,124.832,16.539z M124.798,16.101c0,0-0.104-0.213,0.198-0.21c0.301,0.003,1.4,0.048,1.4,0.048
		s0.143,0.046,0.14,0.119c-0.003,0.073,0.006,0.155-0.088,0.158C126.351,16.216,124.798,16.101,124.798,16.101z M185.928,19.535
		l8.111,0.073c0,0,0.359-0.362,1.157-0.286c0.792,0.076,1.766,0.563,2.11,2.475c0.137,0.761-0.082,2.582-1.312,3.13
		c-0.798,0.353-1.254,0.265-1.574,0.155l-0.161-0.052l-45.785-0.368c0,0-0.189,0.344-0.384,0.204
		c-0.201-0.137-0.158-0.036-0.25,0.037c-0.091,0.073-0.731,0.341-1.054,0.152c-0.326-0.186-0.231-0.131-0.371-0.11
		c-0.137,0.021-0.226-0.082-0.323-0.137l-8.5-0.186c0,0-0.052,0.173-0.28,0.04c0,0-0.146-0.006-0.25,0.085
		c-0.106,0.091-0.755,0.381-1.254,0.064c0,0-0.189-0.113-0.311-0.128c-0.116-0.018-0.317-0.109-0.399-0.231l-43.313-0.807
		c0,0-0.252,0.003-0.058,0.143c0.198,0.143,1.418,1.151,0.947,2.274c-0.195,0.466-1.336,1.617-4.11-0.618
		c-0.861-0.7-1.075-1.79-1.075-1.79s0.019-0.067-0.113-0.067c-0.131,0.003-39.068-0.816-39.068-0.816s-0.189,0.067-0.244,0.162
		s-0.481,0.308-0.627,0.25c-0.146-0.061-0.195-0.012-0.329,0.04c-0.128,0.049-0.627,0.292-1.151-0.03c0,0-0.061-0.113-0.189-0.11
		c-0.127,0-0.231-0.03-0.304-0.127c-0.079-0.095-0.177-0.098-0.286-0.085c-0.11,0.012-2.241-0.024-2.417-0.027
		s-0.274-0.055-0.372-0.113c-0.091-0.055-0.244-0.064-0.244-0.064L8.096,21.971c0,0-0.127-0.043-0.262,0.055
		C7.7,22.126,7.067,22.57,6.379,22.43c-0.433-0.088-1.461-1.026-1.407-3.937c0.006-0.369-0.085-2.853,1.486-3.891
		c0.408-0.268,0.73,0.14,0.73,0.14s0.323-0.116,0.505,0.219c0,0,0.207-0.009,0.347,0.198c0,0,0.207-0.055,0.481-0.049
		c0.274,0.006,4.951,0.14,4.951,0.14s0.104,0.085,0.128-0.052c0.03-0.137-0.03-0.247,0.316-0.277
		c0.341-0.027,1.754-0.052,1.931-0.003c0.176,0.052,0.073-0.167,0.158-0.25c0.085-0.082,0.67-0.432,0.688-0.536
		c0.024-0.101,0.067-0.512,0.067-0.512s-0.183-0.24-0.165-0.402c0.012-0.161,0.256-0.25,0.104-0.377
		c-0.158-0.128-0.621-0.32-0.487-0.91c0.122-0.53,0.664-1.215,1.467-0.658c0.311,0.216,0.475,0.259,0.603,0.237
		c0.128-0.024,0.725-0.003,0.725-0.003s0.122-0.042,0.152-0.161c0.03-0.116,0.359-0.362,0.432-0.417
		c0.067-0.055,0.365-0.109,0.475,0.067c0.109,0.177,0.079,0.195,0.183,0.241c0.109,0.042,0.25,0.198,0.25,0.198
		s0.061,0.095,0.262,0.076c0.201-0.018,5.17,0.146,5.17,0.146s0.067-0.113,0.152-0.235c0.091-0.119,0.158-0.329,0.365-0.301
		c0.213,0.027,0.347,0.125,0.432,0.305c0.085,0.183,0.177,0.39,0.213,0.295c0.037-0.094,0.146-0.052,0.146-0.052
		s0.049-0.024,0.189-0.137c0.14-0.11,0.59-0.326,0.871-0.085c0.28,0.238,0.457,0.262,0.64,0.25c0.176-0.009,0.633,0.158,0.736,0.104
		c0.11-0.052,0.171,0.04,0.171-0.128c0.006-0.17,0.262-0.29,0.341-0.393c0.079-0.106,0.335-0.152,0.487-0.024
		c0.158,0.128,0.018,0.144,0.116,0.198c0.097,0.061,0.219,0.052,0.286,0.167c0.067,0.112,0.298,0.173,0.298,0.173l3.909,0.122
		c0,0,0.14-0.012,0.152-0.101c0.018-0.088,0.109-0.052,0.207-0.226c0.097-0.17-0.024-0.149,0.262-0.191
		c0.292-0.04,0.377,0.106,0.414,0.183c0.03,0.073,0.018,0.332,0.17,0.195c0.158-0.14,0.305-0.457,0.493-0.423
		c0.268,0.049,0.286,0.091,0.335,0.14c0.049,0.045,0.177,0.326,0.177,0.326s0.304,0.161,0.365,0.195
		c0.055,0.03,0.024,0.015,0.146-0.088c0.116-0.104,0.238-0.414,0.962-0.055c0.268,0.134,0.536,0.195,0.615,0.186
		c0.085-0.009,0.396,0.04,0.451-0.045c0.116-0.204,0.134-0.341,0.274-0.451s0.207-0.222,0.53-0.094
		c0.329,0.131,0.402,0.329,0.445,0.426c0.036,0.1,0.018,0.164,0.231,0.191c0.213,0.028,1.212-0.024,1.212-0.024
		s0.079,0.201,0.17-0.034c0.231-0.579,0.688-0.432,0.591-0.423c0.219-0.021,0.402,0.256,0.432,0.369
		c0.031,0.112-0.018,0.198,0.219,0.219c0.231,0.021,0.584,0.07,0.676,0.009c0.091-0.061,0.176-0.24,0.462-0.268
		c0.28-0.027,1.066,0.027,1.157,0.669c0.037,0.29,0.067,0.438-0.165,0.877c-0.037,0.064,0.073,0.195-0.006,0.244
		c0,0,0.091,0.204-0.024,0.369c-0.116,0.161-0.067,0.283-0.037,0.396c0.03,0.113,0.146,0.865,0.201,0.935
		c0.055,0.07,0.128,0.113,0.286,0.07c0.152-0.043,0.414,0.106,0.481,0.222c0.055,0.097,0.091,0.07,0.17-0.037
		c0.079-0.104,0.165-0.152,0.377-0.027s0.274,0.253,0.341,0.101c0.067-0.149,0.159-0.174,0.189-0.329
		c0.03-0.152,0.177-1.06,0.097-1.181c-0.085-0.125-0.158-0.128-0.127-0.247c0.03-0.116,0.048-0.18-0.024-0.222
		c-0.073-0.042,0.073,0.006-0.085-0.219c-0.152-0.222-0.572-0.715-0.006-1.373c0.176-0.204,0.864-0.469,1.267,0.079
		c0,0,0.311,0.229,0.383,0.094c0.079-0.131,0.128-0.176,0.128-0.176s0.237-0.402,0.56-0.442c0.329-0.04,0.518,0.25,0.664,0.484
		c0.143,0.234,0.286,0.165,0.441,0.204c0.152,0.04,2.338,0.082,2.338,0.082s0.079-0.134,0.219-0.155
		c0.137-0.021,0.082,0.07,0.188,0.109c0.106,0.037,1.62,0.098,1.62,0.098s0.055-0.143,0.14-0.247c0.085-0.104,0.42-0.42,0.627-0.377
		c0.204,0.042,0.329,0.091,0.432,0.35c0.101,0.262-0.021,0.295,0.204,0.347c0.222,0.055,1.495,0.052,1.495,0.052
		s0.098-0.171,0.162-0.238c0.064-0.064,0.536-0.402,0.536-0.402s0.195,0.012,0.354,0.18c0.158,0.167,0.186,0.387,0.274,0.234
		s0.088-0.329,0.311-0.277s0.341,0.247,0.341,0.247s0.021,0.268,0.329,0.265c0.305,0,1.632,0.079,1.632,0.079l0.155-0.14
		l0.207,0.122c0,0,3.684,0.091,3.799,0.109c0.116,0.019,0.174-0.432,0.387-0.536c0.213-0.106,0.295-0.165,0.557,0.04
		c0.265,0.207,0.332,0.234,0.365,0.338c0.085,0.247,0.122,0.098,0.366,0.162c0.24,0.064,3.724,0.146,3.806,0.134
		c0.082-0.009,0.137-0.07,0.286-0.329c0.149-0.256,0.253-0.274,0.436-0.262c0.186,0.012,0.277,0.18,0.326,0.265
		c0.049,0.082-0.006,0.109,0.195,0.091c0.201-0.018,0.438-0.07,0.502-0.015c0.064,0.058,0.77-0.049,0.77-0.049
		s0.116-0.161,0.159-0.271c0.042-0.109,0.188-0.231,0.316-0.085c0.104,0.128,0.104,0.213,0.183,0.241s0.226,0.207,0.226,0.207
		l2.229,0.125c0,0,0.14-0.338,0.335-0.283c0.198,0.058,0.292,0.359,0.475,0.104c0.186-0.256,0.433-0.055,0.551-0.064
		c0.119-0.006,0.237,0.119,0.247,0.201c0.012,0.083,0.17,0.04,0.225,0.11c0.055,0.07,0.085,0.277,0.183,0.277
		c0.094-0.003,0.326-0.04,0.408-0.052c0.079-0.009,0.253-0.405,0.384-0.462c0.128-0.061,0.484-0.083,0.733-0.052
		c0.247,0.027,0.426,0.149,0.472,0.234c0.049,0.085,0.134,0.097,0.195,0.055c0.064-0.04,0.165,0.018,0.165,0.018
		s0.167-0.225,0.417-0.426c0.247-0.198,0.459-0.076,0.597,0.021c0.134,0.098,0.231,0.326,0.231,0.326s0.192,0.11,0.432,0.076
		c0.186-0.024,2.274,0.116,2.366,0.091s0.165-0.021,0.231-0.134c0.064-0.116,0.17-0.302,0.372-0.32
		c0.201-0.015,0.372,0.082,0.432,0.177c0.061,0.091,0.058,0.298,0.262,0.301c0.207,0.006,1.188,0.094,1.282,0.091
		c0.094,0,0.271-0.301,0.319-0.387c0.049-0.085,0.396-0.359,0.734-0.052c0.338,0.311,0.338,0.441,0.338,0.441l1.175,0.11
		c0,0,0.125-0.387,0.396-0.362c0.274,0.024,0.459,0.131,0.462,0.228c0,0.095,0.085,0.11,0.183,0.107
		c0.098-0.003,0.29-0.006,0.29-0.006s0.186-0.289,0.676-0.313c0.49-0.021,0.758,0.341,0.758,0.341s-0.159,0.177,0.079,0.219
		c0.244,0.046,0.42,0.167,0.444-0.009c0.024-0.177,0.353-0.579,0.658-0.576c0.301,0.003,0.523,0.38,0.56,0.478
		c0.04,0.098,0.073,0.173,0.25,0.161c0.176-0.009,4.308,0.128,4.308,0.128s0.204-0.091,0.253-0.176
		c0.049-0.088,0.195-0.271,0.195-0.271s0.07-0.417,0.268-0.396c0.198,0.019,0.17,0.268,0.17,0.268s0.469,0.137,0.572,0.557
		l2.947,0.14c0,0-0.034-0.207,0.347-0.274c0.38-0.064,0.438-0.034,0.579-0.009c0.137,0.024,0.334,0.213,0.42,0.262
		s0.155-0.042,0.247-0.201c0.091-0.155,0.356-0.42,0.688-0.366c0.204,0.037,0.393,0.247,0.515,0.433
		c0.122,0.183,0.152,0.164,0.353,0.146c0.116-0.009,4.22,0.17,4.22,0.17s0.183-0.18,0.234-0.301
		c0.052-0.125,0.387-0.502,0.685-0.292c0.137,0.101,0.307,0.387,0.341,0.463c0.03,0.076,0.192,0.094,0.192,0.094l1.011,0.031
		c0,0,0.167-0.323,0.375-0.487c0.213-0.165,0.444-0.106,0.554-0.064c0.106,0.046,0.329,0.286,0.35,0.414
		c0.021,0.128,0.04,0.098,0.149,0.104c0.11,0.006,2.208,0.17,2.208,0.17s0.173-0.204,0.326-0.173
		c0.155,0.034,0.42-0.195,0.749-0.042c0.332,0.152,0.347,0.39,0.347,0.39s0.018,0.067,0.176-0.07c0.152-0.14,0.67-0.012,0.743,0.031
		c0.073,0.04,0.158,0.186,0.195,0.283c0.042,0.1,0.073,0.14,0.177,0.158c0.104,0.021,2.569,0.073,2.569,0.073
		s0.091-0.289,0.158-0.344c0.073-0.055,0.085,0.085,0.116-0.067c0.031-0.152-0.067-0.344,0.152-0.332
		c0.222,0.015,0.222,0.244,0.222,0.244s0.113,0.067,0.21,0.064c0.098,0,0.457,0.131,0.512,0.237
		c0.052,0.106-0.082,0.143,0.061,0.189c0.146,0.045,1.285,0.018,1.285,0.018s0.177-0.106,0.298-0.152
		c0.122-0.045,0.515-0.198,0.828-0.015c0.317,0.18,0.457,0.49,0.457,0.49s0.11,0.14,0.04,0.231c0,0-0.07,0.055-0.021,0.14
		c0.045,0.085-0.042,0.362-0.104,0.402c-0.061,0.042,0.085,0.009,0.058,0.125c-0.027,0.115-0.009,0.03-0.003,0.076
		c0.003,0.049,0.042,0.104,0.012,0.192c-0.037,0.085,0.152,1.126,0.25,1.197c0.098,0.07,0.046,0.188,0.399,0.183
		c0.356-0.009,1.617,0.049,1.909,0.173c0.298,0.125,0.326,0.204,0.365,0.241c0.042,0.04,4.086,0.104,4.153,0.097
		c0.061-0.009,0.39-0.386,0.67-0.347c0,0,0.207-0.149,0.292-0.192c0.085-0.046,0.481-0.122,0.78-0.027
		c0.292,0.097,0.667,0.295,0.667,0.295c0.106,0.137,0.247,0.188,0.457,0.188c0.21,0,8.135,0.158,8.135,0.158
		s0.162-0.277,0.369-0.295c0.207-0.016,0.316,0,0.402-0.07c0.091-0.07,0.551-0.155,0.84-0.049c0.286,0.107,0.658,0.256,0.73,0.344
		c0.067,0.088,0.061,0.234,0.396,0.262s23.148,0.597,23.148,0.597s0.173,0.122,0.198-0.1c0.031-0.302,0.542-0.816,0.712-1.005
		c0.17-0.189,0.493-0.216,0.731-0.125c0.237,0.091,1.358,0.155,1.827,0.155c0.161,0,1.994,0.079,3.946,0.079
		c2.241,0.003,4.625-0.073,4.68-0.082c0.104-0.018,0.715-0.073,1.056,0.201C185.532,18.427,185.882,18.594,185.928,19.535z
		 M122.43,15.851c0,0,1.157-0.125,1.267-0.061c0.109,0.064,0.188,0.286,0.036,0.286c-0.146,0.003-1.184,0.021-1.184,0.021
		L122.43,15.851z"/>
</g>
</svg>
