<?xml version="1.0" encoding="utf-8"?>
<!-- Generator: Adobe Illustrator 16.0.0, SVG Export Plug-In . SVG Version: 6.00 Build 0)  -->
<!DOCTYPE svg PUBLIC "-//W3C//DTD SVG 1.1//EN" "http://www.w3.org/Graphics/SVG/1.1/DTD/svg11.dtd">
<svg version="1.1" xmlns="http://www.w3.org/2000/svg" xmlns:xlink="http://www.w3.org/1999/xlink" x="0px" y="0px"
	 width="140.667px" height="136.667px" viewBox="0 0 140.667 136.667" enable-background="new 0 0 140.667 136.667"
	 xml:space="preserve">
<g id="Layer_1">
</g>
<g id="Layer_2">
	<path fill-rule="evenodd" clip-rule="evenodd" fill="none" stroke="#1A1A1A" stroke-width="0.5" stroke-miterlimit="10" d="
		M108.216,66.621c-0.014,0.562-0.242,0.595-0.31,0.978c-0.342,0.024-1.075,1.069-1.184,1.49c0.174,0.101,0.122,0.128,0.41,0.155
		c-5.099,8.064-13.491,13.475-21.522,18.645c-1.013,0.649-2.395,0.874-3.399,1.597c-0.6,0.429-1.135,0.931-1.852,1.284
		c-0.69,0.241-1.376,0.483-2.061,0.722c-0.54,0.456-0.888,1.187-1.439,1.648c-0.486,0.345-0.966,0.687-1.444,1.029
		c0,0.019,0,0.038,0,0.052c0.589-0.111,0.934,0.03,1.132,0.565c0.214,0.695-0.22,1.181-0.665,1.39
		c-0.353-0.06-0.457-0.192-0.673-0.361c0,0.76,0,1.512,0,2.267c0.206,0,0.413,0,0.616,0c0.057-0.087,0.106-0.168,0.155-0.255
		c0.119,0.087,0.244,0.168,0.364,0.255c-0.022,0.139-0.038,0.274-0.052,0.413c-0.106,0.122-0.206,0.242-0.312,0.361
		c-0.271-0.226-0.383-0.193-0.771-0.158c0,0.467,0,0.929,0,1.396c0.722,0.209,1.083,1.317,0.928,2.368
		c-0.019,0.223-0.038,0.442-0.051,0.668c0.073,0.16,0.345,0.182,0.355,0.464c0.038,0.559-0.565,0.532-0.255,1.235
		c0.69,0.25,1.005,0.917,1.751,1.083c1.412,0.31,2.976-0.285,4.018-0.622c2.628-0.842,5.091-1.746,7.518-2.674
		c1.233-0.475,2.354-0.054,2.417,1.184c-0.73,1.135-2.262,1.646-3.396,2.368c-3.207,2.093-6.421,4.187-9.63,6.28
		c2.905,5.11,8.737,7.757,13.749,10.766c1.874,1.124,5.544,1.993,5.563,4.838c-0.242,0.193-0.47,0.5-0.823,0.567
		c-1.129,0.215-2.001-0.801-2.68-1.083c-1.081-0.342-2.164-0.684-3.245-1.029c-6.142-2.261-12.289-4.528-18.433-6.795
		c-1.1,0-2.197,0-3.293,0c-1.122-0.223-2.009-0.644-3.041-0.877c-0.595-0.128-2.354,0.47-2.628,0
		c-0.106-0.182-0.079-0.426-0.152-0.562c-8.618,0.187-17.235,0.375-25.85,0.562c-2.077,0.035-4.157,0.073-6.231,0.105
		c-1.187,0-2.216-0.187-2.577,0.666c-1.757,0.014-4.993,0.662-5.818,0.106c-0.271-1.064,0.239-2.115,0.361-3.139
		c0.027-0.207-0.214-0.386-0.155-0.722c0.858-1.181,2.669-1.979,3.861-2.835c2.563-1.827,5.04-3.898,7.782-5.509
		c0.907-0.41,1.819-0.822,2.726-1.232c1.461-0.776,2.813-1.884,4.119-2.834c0.687-0.497,1.371-0.997,2.061-1.494
		c-0.035-0.051-0.068-0.1-0.103-0.157c-0.891-0.478-1.787-0.958-2.68-1.439c-2.892-1.265-5.971-2.169-9.164-3.139
		c-1.341-0.38-2.677-0.76-4.019-1.135c-1.064,1.436-3.334,2.834-5.767,2.112c-0.375-0.106-0.755-0.207-1.135-0.313
		c-0.255-0.304-0.511-0.616-0.771-0.926c-0.513-0.445-1.029-0.893-1.545-1.341c0.068-0.317,0.144-0.377,0.054-0.616
		c-0.41-0.236-0.828-0.48-1.238-0.717c-0.736-0.174-1.295,0.288-1.8,0.255c-0.019-0.087-0.038-0.174-0.052-0.255
		c0.052-0.068,0.101-0.141,0.155-0.212c0.233-0.076,0.467-0.176,0.565-0.41c-1.146-0.22-2.536-1.244-3.036-2.161
		c0.209-1.838,1.852-1.673,3.394-2.213c0.38-0.261,0.76-0.516,1.135-0.774c1.078-0.635,4.369-2.563,5.561-2.677
		c0.695,0.415,1.094,1.691,1.547,2.367c1.135,1.691,2.745,3.698,4.583,4.684c0.033,0.226,0.068,0.448,0.101,0.673
		c3.022,0.635,6.041,1.271,9.063,1.906c5.645,1.216,11.294,2.435,16.945,3.657c2.08,0.516,7.374,0.779,7.569,2.933
		c1.233-0.635,2.465-1.271,3.704-1.906c-0.036-1.374-0.065-2.745-0.104-4.116c0.201-0.706,0.467-0.774,0.261-1.906
		c-1.439-0.28-2.59-1.436-3.09-2.68c-1.862-0.174-3.149-1.357-4.431-2.112c-0.958-0.565-2.004-0.63-2.832-1.132
		c-0.616-0.5-1.235-0.996-1.852-1.496c-0.516-0.204-1.035-0.41-1.545-0.616c-1.71-0.858-3.416-1.765-4.947-2.829
		c-9.758-6.788-16.942-16.146-21.422-28.218c-1.273-3.442-1.955-7.295-2.778-11.227c-0.241-1.667-0.48-3.332-0.722-4.996
		c-0.635-0.377-1.271-0.752-1.906-1.132c-0.188,0.087-0.375,0.174-0.567,0.255c-0.994-0.375-1.103-2.723-1.129-4.067
		c-0.565-0.125-1.901-1.564-1.542-2.468c0.168-0.241,0.342-0.486,0.511-0.722c-0.207-1.029-0.413-2.061-0.617-3.089
		c-0.347-0.093-0.622-0.114-0.773-0.413c-0.418-0.79-0.261-2.37,0.255-2.783c-0.098-0.668-0.204-1.338-0.304-2.006
		c-0.576-1.238-1.2-2.088-0.055-3.399c0.396-0.041,0.505-0.011,0.777,0.155c0.141,0.454,0.475,0.937,0.562,1.29
		c0.141,0.565-0.28,0.698-0.258,1.184c0.158,0.791,0.313,1.575,0.467,2.368c0.255-0.005,0.57-0.038,0.717-0.157
		c-0.196-1.54,1.208-3.003,2.063-3.755c2.723-2.4,7.119-4.499,10.969-5.718c0.896-0.285,4.629-0.988,4.99-1.545
		c0.245-0.372,0.06-0.896,0.054-1.335c-0.008-0.524-0.021-1.198-0.206-1.545c-0.788,0.1-1.58,0.206-2.37,0.307
		c-0.28-0.114-0.38-0.214-0.568-0.413c0.019-0.136,0.038-0.274,0.055-0.41c0.081-0.188,0.125-0.225,0.307-0.312
		c0.741-0.068,1.477-0.136,2.218-0.204c0.271-0.158,0.548-0.307,0.82-0.462c0.38-0.065,0.548,0.25,0.774,0.304
		c0.6,0.146,1.938-0.391,2.522-0.304c0.087,0.101,0.174,0.204,0.255,0.304c-0.011,0.158-0.03,0.313-0.049,0.467
		c-0.505,0.641-2.215,0.301-2.883,0.773c-0.019,0.831-0.038,2.294,0.361,2.778c5.346-1.7,11.553-1.504,17.456-2.474
		c1.835-0.117,3.676-0.236,5.511-0.355c2.606-0.068,5.216-0.136,7.825-0.207c2.902,0.033,5.805,0.071,8.705,0.101
		c0.611,0,2.796,0.261,3.038-0.049c0.282-0.676-0.027-2.436-0.413-2.729c-0.692,0.196-2.134,0.201-2.577-0.054
		c-0.014-0.171-0.033-0.345-0.049-0.513c0.103-0.136,0.204-0.274,0.309-0.41c0.804,0.014,1.613,0.03,2.417,0.049
		c0.245-0.073,0.38-0.402,0.828-0.31c0.394,0.082,0.603,0.41,1.284,0.31c0.548-0.019,1.103-0.035,1.651-0.049
		c0.12,0.1,0.236,0.204,0.361,0.304c-0.019,0.139-0.038,0.274-0.055,0.413c-0.458,0.828-2.359-0.068-2.935,0.516
		c0.06,0.527-0.125,2.321,0.361,2.628c3.451,0.307,6.902,0.616,10.347,0.923c1.325,0.193,2.647,0.38,3.967,0.567
		c3.022,0.695,6.084,1.051,8.959,1.854c2.335,0.722,4.67,1.442,7.005,2.164c1.404,0.564,2.813,1.132,4.219,1.7
		c0.155-0.106,0.313-0.207,0.467-0.313c0.448-0.776,0.516-2.527,0.155-3.139c-0.489-0.06-1.521-0.252-1.806-0.567
		c-0.146-0.141-0.188-0.228-0.207-0.516c0.12-0.152,0.245-0.307,0.361-0.462c0.853-0.024,1.254,0.489,1.958,0.617
		c0.293-0.049,0.584-0.101,0.877-0.155c0.394,0.101,0.329,0.394,0.567,0.622c0.635,0.149,1.265,0.307,1.901,0.461
		c0.068,0.136,0.138,0.274,0.211,0.41c0,0.157,0,0.312,0,0.467c-0.087,0.068-0.174,0.139-0.261,0.207
		c-0.667,0.334-1.528-0.429-2.267-0.516c-0.1,0.939-0.206,1.887-0.307,2.832c0.12,0.084,0.236,0.171,0.361,0.258
		c0.233,0.402,0.049,1.105,0.049,1.646c1.892,1.083,3.437,5.297,1.958,8.188c-0.776,1.518-2.14,2.14-3.245,3.296
		c-0.011,5.957-0.595,11.846-1.803,16.994c-0.516,1.971-1.026,3.945-1.545,5.919c-0.204-0.074-0.141-0.147-0.255,0.105
		c-0.583,0.394-0.575,1.835-0.928,2.623c-0.128,0.282-0.505,0.489-0.617,0.722c0,0.174,0,0.342,0,0.516
		c-0.187,0.348-0.434,0.79-0.67,1.184c-0.141,0.239-0.353,1.107-0.052,1.284c-0.22,0.741-1.119,1.208-1.29,2.112
		c0.193,0.141,0.084,0,0.057,0.261c-0.166,0.081-1.312,1.965-1.341,2.161c0.106,0.046,0.057,0,0.052,0.101
		c-0.16,0.138-0.394,0.046-0.31,0.415C108.958,65.236,108.982,66.493,108.216,66.621z M19.854,27.896
		c-0.038,0.665,0.206,2.395,0.616,3.038c0.44,0.195,0.654,0.467,1.29,0.516c0.271-0.108,0.565-0.163,0.668-0.464
		c-0.31-0.258-0.28-0.88-0.413-1.184c-0.776-0.361-1.097-1.556-1.545-1.803C20.275,27.891,20.05,27.991,19.854,27.896z
		 M22.738,33.508c-0.565,0.516-0.875,2.569-0.671,3.451c0.568,0.342,1.132,0.689,1.7,1.032c-0.027-0.603-0.187-3.989-0.461-4.273
		c-0.068-0.074-0.139-0.142-0.207-0.209C22.977,33.508,22.857,33.508,22.738,33.508z M53.48,102.667
		c0.214,0.423,5.11,2.541,6.123,2.267c0.282-0.193,0.554-0.38,0.831-0.568c-0.021-0.068-0.038-0.138-0.057-0.206
		c-0.687-0.261-1.371-0.516-2.056-0.771C56.888,102.935,55.213,102.715,53.48,102.667z M48.946,103.128
		c-0.435,0.263-1.241,0.187-1.697,0.464c-2.384,1.716-4.771,3.435-7.157,5.147c-1.371,1.032-2.883,3.109-4.428,3.761
		c0,0.032,0,0.07,0,0.1c6.53,0.128,11.922-1.618,16.426-3.551c1.029-0.442,4.434-1.626,4.787-2.471
		C54.056,105.846,51.681,103.866,48.946,103.128z"/>
</g>
</svg>
