<?xml version="1.0" encoding="utf-8"?>
<!-- Generator: Adobe Illustrator 16.0.0, SVG Export Plug-In . SVG Version: 6.00 Build 0)  -->
<!DOCTYPE svg PUBLIC "-//W3C//DTD SVG 1.1//EN" "http://www.w3.org/Graphics/SVG/1.1/DTD/svg11.dtd">
<svg version="1.1" xmlns="http://www.w3.org/2000/svg" xmlns:xlink="http://www.w3.org/1999/xlink" x="0px" y="0px"
	 width="204.667px" height="64.667px" viewBox="0 0 204.667 64.667" enable-background="new 0 0 204.667 64.667"
	 xml:space="preserve">
<g id="Layer_1">
</g>
<g id="Layer_2">
	<path fill-rule="evenodd" clip-rule="evenodd" fill="none" stroke="#1A1A1A" stroke-width="0.5" stroke-miterlimit="10" d="
		M71.135,29.272l-0.023,4.559c0,0,0.112,0.594,0.256,0.745c0.148,0.151,0.141,0.197,0.017,0.243
		c-0.122,0.049-0.223,0.319-0.079,0.493c0.144,0.174,0.092,0.223,0.115,0.322c0.02,0.102,0,5.648-0.026,5.744
		s-0.052,0.171-0.174,0.167s-0.716-0.04-0.716-0.04s-0.098-0.125-0.262-0.203c-0.174-0.079-15.857-0.686-15.857-0.686
		s-0.246-0.003-0.302,0.092c0,0-1.717-0.089-1.845-0.063c-0.122,0.023-0.325,0.092-0.325,0.092s-3.732-0.521-5.649,3.798
		c0,0-6.555-0.043-9.591-0.945c-1.149-0.345-6.332-2.308-7.004-7.694c-0.122-0.971-0.266-4.812,2.156-7.323
		c0.135-0.141,0.25-0.042,0.348-0.042c0.095,0.006,11.11,0.092,11.232,0.095s0.397-0.236,0.496-0.286
		c0.102-0.046,0.295,0.007,0.397,0.01c0.099,0.003,25.214,0.837,25.953,0.876C70.99,29.269,71.135,29.272,71.135,29.272z
		 M78.753,29.669c0,0-0.046-0.184,0.141-0.181c0.181,0.003,0.624-0.007,0.696,0.013c0.072,0.02,0.131-0.036,0.128,0.134
		c-0.003,0.164,0.03,4.546,0.03,4.658c-0.003,0.112,0.062,0.482,0.157,0.65c0.085,0.167,0.063,0.243-0.029,0.295
		c-0.095,0.052-0.056,0.145-0.01,0.24c0.059,0.095,0.145,0.262-0.003,0.295c-0.147,0.033-0.279,0.033-0.295,0.18
		c-0.026,0.145,0.082,0.22-0.118,0.253c-0.204,0.033-0.519-0.046-0.519-0.046s-0.085-0.207-0.161-0.187
		c-0.076,0.016-0.033-0.151-0.033-0.151s-0.167-0.06-0.236-0.115c-0.072-0.056-0.036-0.279-0.036-0.279s0.171-0.243,0.082-0.335
		c-0.088-0.095-0.2-0.036-0.157-0.22c0.039-0.184-0.033-0.03,0.099-0.295C78.852,33.851,78.772,29.781,78.753,29.669z
		 M78.356,38.754c0,0-0.03-0.17,0.134-0.18c0.171-0.017,0.135-0.165,0.135-0.24c0-0.072,0.184,0.023,0.187-0.108
		c0.003-0.125,0.112-0.049,0.19-0.125c0.072-0.069,0.164-0.105,0.22-0.03c0.056,0.072,0.128,0.112,0.22,0.115
		c0.095,0.003,0.131-0.036,0.125,0.095c0,0.131,0.072,0.204,0.164,0.243c0.089,0.039,0.033,0.036,0.148,0.131
		c0.105,0.095,0.088,0.023,0.085,0.17c-0.003,0.148-0.069,3.122-0.052,3.23c0.02,0.111,0.036,0.187-0.131,0.22
		c-0.167,0.036-1.155,0.457-1.287,0.453c-0.131,0-0.148,0.108-0.138-0.299C78.362,42.027,78.356,38.754,78.356,38.754z
		 M86.909,38.991c0,0-0.013-0.161,0.095-0.161c0.115,0,0.23-0.253,0.23-0.253s0.167-0.069,0.223-0.164
		c0.056-0.088,0.17-0.18,0.263-0.125c0.088,0.059,0.128,0.151,0.216,0.154c0.092,0,0.204,0.042,0.204,0.151
		c-0.003,0.112,0.049,0.279,0.177,0.338c0.122,0.059,0.276,0.023,0.266,0.19c0.006,0.167-0.046,6.745-0.049,6.854
		c0,0.111-0.023,0.204-0.207,0.236c-0.187,0.036-1.165,0.049-1.241,0.049c-0.072,0-0.275-0.056-0.269-0.358
		C86.824,45.532,86.909,38.991,86.909,38.991z M78.287,48.03c0,0,0.207-0.161,0.411-0.177c0.203-0.013,0.87-0.017,1.004-0.013
		c0.128,0,0.18-0.069,0.177,0.115c-0.003,0.184,0.118,0.443,0.003,0.535c-0.111,0.092-0.942,0.276-1.057,0.328
		c-0.115,0.053-0.41,0.213-0.499,0.102C78.231,48.805,78.32,48.142,78.287,48.03z M86.817,50.896c0,0-0.046-0.243,0.154-0.223
		c0.204,0.026,0.906,0.003,1.054,0.026c0.147,0.02,0.463-0.01,0.44,0.213c-0.02,0.22-0.033,1.733-0.033,1.733
		s-0.118,0.04-0.246,0.033c-0.128-0.003-0.147,0.2-0.17,0.272c-0.02,0.076,0.033,0.223-0.19,0.259
		c-0.223,0.03-0.443-0.033-0.532-0.125c-0.092-0.092-0.072-0.223-0.217-0.338c-0.147-0.115-0.204-0.022-0.275-0.098
		C86.729,52.573,86.817,50.896,86.817,50.896z M104.387,45.375c0,0-0.065,0.184,0.125,0.207c0.181,0.023,0.902,0.076,1.031,0.059
		c0.131-0.016,0.167-0.016,0.088,0.076c-0.069,0.092-0.115,0.275-0.099,0.351c0.017,0.072,0.023,0.145,0.089,0.204
		c0.072,0.056,0.088,0.131-0.036,0.145c-0.131,0.02-9.2-0.27-9.2-0.27s-0.407-0.01-0.502,0.063
		c-0.092,0.072-0.354,0.197-0.397-0.229c-0.049-0.427-0.04-0.942,0.003-1.015c0.04-0.075,0.128-0.128,0.272-0.108
		c0.151,0.023,0.758,0.056,0.758,0.056s0.075,0.147,0.295,0.227C97.032,45.217,104.387,45.375,104.387,45.375z M125.844,46.094
		c0,0,0.203,0.006,0.128,0.098c-0.076,0.089-0.135,0.329-0.099,0.42c0.03,0.095,0.158,0.263,0.141,0.354
		c-0.02,0.092-0.115,0.072-0.223,0.069c-0.111,0-18.157-0.535-18.157-0.535s-0.089-0.062-0.033-0.187
		c0.056-0.128-0.01-0.499-0.01-0.499s-0.147-0.151,0.118-0.145c0.256,0.003,0.68,0.013,0.771,0.013
		c0.092,0.003,0.279-0.01,0.354-0.102c0.072-0.092,0.263-0.085,0.374-0.085c0.108,0.003,7.257,0.193,7.257,0.193
		s0.18,0.023,0.243-0.069l7.992,0.19c0,0-0.003,0.204,0.259,0.229C125.217,46.064,125.844,46.094,125.844,46.094z M129.155,45.982
		c0,0,2.048,0.046,2.127,0.063c0.072,0.023,0.181-0.033,0.177,0.118c0.003,0.145,0.059,0.758-0.033,0.771
		c-0.095,0.02-0.814,0.059-0.906,0.059c-0.095-0.003-0.171,0.013-0.204,0.105c-0.04,0.092-0.23,0.069-0.341,0.065
		c-0.108-0.003-2.064-0.046-2.064-0.046s-0.148,0.053-0.013-0.147c0.131-0.2,0.049-0.627,0.049-0.627s-0.24-0.151-0.108-0.167
		c0.131-0.017,0.945,0.02,1.037,0.023C128.965,46.199,129.155,45.982,129.155,45.982z M133.81,46.1c0,0,2.439,0.072,2.567,0.072
		c0.131,0.003,0.371,0.026,0.41-0.065c0.036-0.092,0.371-0.026,0.644,0.145c0.275,0.174,0.496,0.289,0.519,0.712
		c0.013,0.167-0.171,0.24-0.194,0.404c-0.026,0.167-0.309,0.056-0.443,0.066c-0.22,0.013-2.331-0.053-2.331-0.053l-0.197-0.227
		c0,0-0.217-0.111-0.332-0.099c-0.112,0.017-0.588,0.007-0.667-0.013c-0.072-0.02-0.065-0.04-0.065-0.188
		C133.721,46.708,133.665,46.117,133.81,46.1z M107.726,32.528c0.407,0.007,2.682-0.016,3.62,2.702
		c0.256,0.735-0.079,2.974-1.789,3.476c-0.423,0.121-2.596,1.313-4.795-1.29c-0.315-0.368-0.745-2.432,0.391-3.703
		C105.398,33.437,106.344,32.518,107.726,32.528z M96.031,30.004c0.072-0.134,15.985,0.516,15.985,0.516s0.075,0.147,0.243,0.18
		c0.174,0.026,18.25,0.539,18.25,0.539s0.095-0.023,0.121,0.075c0.023,0.102,0.142,0.2,0.338,0.23
		c0.2,0.029,0.692,0.039,0.692,0.039s0.069,0.079,0.066,0.197c0,0.125-0.017,1.086-0.003,1.211c0.026,0.122,0.099,0.197,0.194,0.299
		c0.095,0.099,0.095,0.102,0.095,0.223s-0.115,7.612-0.115,7.612s-0.052,0.072-0.2,0.092c-0.147,0.023-2.16-0.076-2.16-0.076
		s0.072-0.286,0.076-0.462c0.006-0.171-0.053-0.525,0.006-0.729c0.059-0.2,0.135-0.404-0.082-0.499l-5.393-0.19
		c0,0,0.046-0.519,0.033-0.594c-0.017-0.072,0.076-0.2-0.108-0.243c-0.181-0.039-1.123-0.059-1.123-0.059s-0.088-0.075-0.088-0.262
		c0.003-0.184,0.121-0.532-0.059-0.611c0,0-0.112-0.059,0.02-0.2c0.135-0.147,0.122-0.387,0.013-0.499
		c-0.112-0.115-0.177-0.154,0.059-0.167s0.486-0.21,0.558-0.302c0.075-0.092,0.088-0.643,0.056-0.735
		c-0.04-0.096-0.19-0.617-1.651-0.575c-0.243,0.007-1.517-0.049-1.786,0.423c-0.138,0.243-0.013,0.703-0.013,0.703
		s0.328,0.302,0.473,0.361s0.387,0.066,0.309,0.138c-0.072,0.069-0.263,0.141-0.246,0.252c0.02,0.112,0.085,0.204,0.108,0.279
		c0.017,0.075,0.233,0.19,0.066,0.203c-0.161,0.013-0.256,0.105-0.227,0.2c0.042,0.092,0.108,0.204,0.108,0.204
		s0.026,0.482-0.046,0.499c-0.076,0.016-1.018-0.059-1.018-0.059s-0.299,0.088-0.358,0.328c-0.036,0.145-0.059,0.328,0.03,0.423
		c0.088,0.095,0.072,0.112-0.164,0.105c-0.247-0.003-7.743-0.144-7.743-0.144s-0.151,0.016-0.02-0.167
		c0.135-0.181,1.611-1.871,0.617-4.461c-0.174-0.449-1.264-3.039-4.671-2.796c-0.414,0.03-3.784,0.676-3.742,4.595
		c0.01,0.607,0.25,2.98,3.184,3.968c0.233,0.076,1.034,0.207,1.126,0.207c0.095,0.003,0.177,0.134-0.042,0.128
		c-0.22-0.003-10.044-0.253-10.303-0.236c-0.259,0.01-0.686,0.04-0.781,0.184l-1.037-0.023c0,0-0.105-0.184-0.118-0.299
		c-0.017-0.111,0.122-4.155,0.122-4.155l-0.046-0.256c0,0-0.125-0.227,0.003-0.354c0.138-0.125,0.282-0.899,0.306-1.342
		c0.029-0.443,0.042-3.621,0.042-3.621S95.995,30.076,96.031,30.004z M151.291,49.97c0,0,1.205-1.103,1.267-1.202
		c0.062-0.102,0.223-0.203,0.252-0.039c0.026,0.164,0.053,0.266,0.259,0.302c0.207,0.033,0.318,0.171,0.434,0.289
		c0.118,0.121,0.252,0.256,0.414,0.334c0.157,0.076,0.321,0.079,0.2,0.181c-0.118,0.102-1.014,0.995-1.179,1.083
		c-0.161,0.089-0.443,0.233-0.551,0.108c-0.102-0.121-0.213-0.193-0.364-0.138c-0.151,0.052-0.223,0.082-0.338-0.099
		c-0.115-0.181-0.02-0.213-0.286-0.272c-0.269-0.065-0.164-0.17-0.141-0.299C151.274,50.085,151.291,49.97,151.291,49.97z
		 M100.206,20.41c0,0,48.38,0.19,64.444-0.867c1.851-0.125,15.252-1.08,19.661-3.02c1.51-0.66,5.432-1.618,10.119-8.317
		c0.371-0.532,0.079-0.433,0.079-0.433s-0.197-2.268,0.673-3.555c0.272-0.407,0.873-0.703,1.283-0.197
		c0.41,0.502,0.833,1.228,0.84,5.541c0,0.345,0.469,3.282,0.351,11.34c0.108-7.549,0.079,13.228-1.365,23.235
		c-0.148,1.021-0.499,3.876-1.264,4.057c-0.276,0.069-0.817-0.013-1.021-0.706c-0.207-0.696-0.771-2.409-0.469-3.364
		c0,0-0.341-0.621-0.548-0.949c-0.216-0.325-2.422-4.392-7.014-7.296c-0.669-0.423-5.518-3.026-16.579-4.336
		c-0.808-0.095-12.808-1.349-16.759-1.69c-0.256-0.023-0.512-0.063-0.417,0.079c0.167,0.25,2.298,1.723,3.059,5.462
		c0.151,0.722,1.211,5.472-0.971,10.871c0,0,0.197,0.151,0.315,0.23c0.122,0.076,0.656,0.43,0.827,0.584
		c0.164,0.147,0.335,0.423,0.364,0.252c0.026-0.174,0.099-1.208,0.151-1.303c0.049-0.098,0.272-0.144,0.299,0.007
		c0.017,0.147-0.017,0.614,0.108,0.394c0.128-0.216,0.046-0.544,0.174-0.561c0.128-0.013,0.19-0.125,0.227-0.233
		c0.046-0.112,0.19-0.164-0.026-0.446s-0.042-0.591,0.017-0.794s0.512-1.467,0.496-2.242c-0.023-0.778,0.016-1.7,0.223-1.973
		c0.207-0.276,0.725-0.207,0.87,0.036c0.138,0.243,0.164,2.589-0.118,4.559c-0.059,0.43-0.213,0.591-0.384,0.604
		c-0.167,0.016-0.095,0.203-0.118,0.295c-0.02,0.092-0.414,2.17-1.536,3.663c0,0-0.312,0.712-0.627,0.837
		c0,0-2.806,3.43-5.642,3.575c-0.539,0.029-0.962-0.726-0.962-0.726s-0.105-0.167,0.059-0.292c0,0-0.263-0.259-0.286-0.466
		c-0.023-0.309,0.161-0.184-0.167-0.259c-0.259-0.059-0.246-0.282-0.246-0.282s-0.115-0.088-0.246-0.036
		c-0.138,0.056-1.809,0.834-4.854,0.68c0,0,0.03,0.029-0.131,0.072c-0.161,0.039-0.788,0.026-0.788,0.026s-0.246,0.115-0.358,0.154
		c-0.102,0.043-0.147,0.046-0.266,0.102c-0.122,0.052-0.309,0.006-0.414-0.085c-0.102-0.092-0.246-0.243-0.246-0.243
		s-0.174-0.029-0.292-0.033c-0.118-0.003-1.937-0.088-1.937-0.088s-0.059-0.03-0.062,0.042c0,0.076,0.042,0.063-0.118,0.059
		c-0.161-0.006-41.481-1.129-41.632-1.132c-0.141,0-0.295-0.134-0.371-0.23c-0.069-0.092-0.902-0.056-0.902-0.056l-0.072-0.072
		c0,0-0.233-0.082-0.256,0.01c-0.02,0.092-0.131,7.001-0.131,7.001s-0.223,0.118,0.017,0.243l-0.006,0.709
		c0,0,0.597,0.25,0.509,1.018c-0.026,0.236-0.85,1.759-4.139,1.51c-0.322-0.026-3.578,0.007-3.673-1.647
		c-0.006-0.118,0.063-0.341,0.112-0.381c0.042-0.046-0.083-0.492,0.239-0.473c0,0,0.076,0,0.076-0.072s-0.007-0.335,0.052-0.335
		c0.063,0-0.039-0.21-0.029-0.492c0.003-0.279,0.046-2.301,0.046-2.301s-0.056-0.059-0.118-0.092
		c-0.056-0.03-0.335-0.204-0.332-0.289c0.007-0.088-0.174-0.207-0.233-0.256c-0.059-0.046-0.374-0.125-0.41-0.066
		c-0.03,0.059-0.079,0.161-0.151,0.174c-0.072,0.01-0.134,0.036-0.141,0.128c0.007,0.092-0.029,0.193-0.131,0.22
		c-0.105,0.026-0.151-0.033-0.167,0.118c-0.02,0.145-0.049,2.127-0.043,2.18c-0.006,0.059-0.006,0.131-0.046,0.19
		c-0.052,0.059,0.017,0.413,0.003,0.492c-0.04,0.19,0.065,0.092,0.151,0.151c0.089,0.059,0.276,0.223,0.24,0.919
		c-0.026,0.329-0.315,0.854-0.899,1.136c-0.341,0.164-3.515,1.103-6.292-0.282c-0.322-0.164-0.814-0.893-0.352-1.635
		c0.099-0.164,0.184-0.17,0.243-0.157c0.052,0.013,0.036-0.532,0.039-0.591c0-0.059,0.056-2.642,0.056-2.642
		s-0.056-0.135-0.145-0.138c-0.092,0-0.269-0.184-0.286-0.272c-0.013-0.088-0.21-0.134-0.233-0.21
		c-0.03-0.076-0.263-0.17-0.328-0.069c-0.063,0.105-0.148,0.187-0.207,0.187s-0.075,0.046-0.108,0.131
		c-0.029,0.088-0.229,0.141-0.285,0.157c-0.056,0.013-0.059-0.029-0.059,0.118c-0.007,0.148-0.033,2.836-0.049,2.941
		c-0.013,0.098-0.03,0.144,0.059,0.164c0.085,0.013,0.282,0.256,0.292,0.525c0.013,0.263-0.026,0.676-0.147,0.867
		c-0.125,0.184-0.867,1.09-3.545,1.09c-0.47,0-3.43-0.085-3.87-1.339c-0.102-0.282-0.154-1.241,0.322-1.234
		c0.072,0,0.095-0.321,0.085-0.426c-0.02-0.105,0.059-5.084,0.046-5.16c-0.013-0.072,0.036-0.203-0.145-0.239
		c-0.174-0.033-1.267-0.069-1.329-0.026c-0.059,0.04-0.148-0.003-0.148,0.069c0,0.076-0.118,0.118-0.227,0.115
		c-0.102,0-15.843-0.584-15.843-0.584l-0.263-0.151l-1.782-0.026c0,0-0.223-0.063-0.335-0.158c-0.105-0.092-2.898,0.141-4.67-2.76
		c0,0-9.831-0.026-13.044-1.904c-0.305-0.184-6.249-2.465-7.926-9.374c-0.04-0.151-1.356-4.982,1.106-9.384
		c0,0,0.164-0.229-0.312-0.239c-0.476-0.01-5.025-0.023-5.025-0.023s-0.167-0.122-0.19-0.194c-0.03-0.076-1.579-0.02-1.579-0.02
		l-0.148-0.092c0,0-0.309,0.007-0.322-0.111c-0.016-0.118-0.147-0.063-0.266-0.063c-0.122-0.003-1.241-0.088-1.267-0.059
		c-0.033,0.03-0.187,0.263-0.318,0.217s-0.207-0.049-0.236,0.04c-0.033,0.085-0.158,0.305-0.315,0.256
		c-0.164-0.046-0.41-0.125-0.423-0.243c-0.017-0.118-0.135-0.079-0.19-0.095c-0.063-0.013-0.223-0.043-0.266-0.135l-1.487-0.079
		c0,0-0.102,0.144-0.263,0.157c-0.161,0.013-0.482-0.056-0.558,0c-0.076,0.059-0.955,1.05-1.461,1.244
		c-0.505,0.194-0.863,0.305-2.133,0.305c-0.148,0-0.135-0.017-0.164,0.085c-0.036,0.105-0.197,0.204-0.374,0.184
		c-0.177-0.016-0.171,0.145-0.319,0.25c-0.151,0.099-0.134,0.099-0.167,0.217c-0.03,0.118-0.145,0.558-0.371,0.594
		c-0.22,0.043-1.996,0.003-2.068,0c-0.072,0-1.526-0.138-1.198-5.36c0.029-0.4,0.049-3.633,1.139-4.234
		c0.135-0.069,2.14,0.003,2.337,0.023c0.19,0.016,0.263,0.151,0.286,0.312c0.026,0.167-0.003,0.239-0.003,0.239
		s0.338,0.112,0.509,0.352c0.174,0.236,0.122,0.105,0.207,0.121c0.088,0.02,0.325,0.171,0.348,0.259
		c0.026,0.089,0.161,0.092,0.253,0.092c0.085,0.003,2.074-0.263,3.263,1.565c0.046,0.072,0.118,0.108,0.279,0.108
		c0.161,0.006,0.469-0.03,0.515,0.056c0.043,0.089,0.026,0.092,0.174,0.092c0.147,0.003,1.182,0.072,1.257,0.059
		c0.072-0.013,0.089-0.029,0.161-0.098c0.075-0.072,0.243-0.043,0.243-0.043s0.072,0.138,0.118-0.013
		c0.042-0.144,0.194-0.322,0.414-0.298c0.227,0.02,0.391,0.095,0.427,0.246c0.04,0.147,0.056,0.121,0.128,0.075
		c0.082-0.042,0.259-0.036,0.315,0.049c0.053,0.089,0.131,0.092,0.19,0.095c0.059,0,1.185,0.099,1.241,0.053
		c0.053-0.04,0.135-0.171,0.24-0.154c0.102,0.016,0.072-0.043,0.177-0.082c0.108-0.043,1.49,0,1.599,0.016
		c0.102,0.02,0.144,0.013,0.239-0.085c0.089-0.098-0.016-0.105,0.299-0.111c0.309-0.007,4.937,0.227,5.068,0.2
		s0.122-0.25,0.299-0.289c0.184-0.039,3.134,0.082,3.193,0.069c0.056-0.017,2.37-2.36,6.644-3.246
		c0.462-0.092,2.718-0.814,10.802-0.696c0.499,0.003,23.058,0.253,23.058,0.253s0.105-0.762,0.568-0.768l0.249-0.292
		c0,0-0.016-0.276,0.23-0.364c0,0,0.082-0.535,2.192-0.709l0.026-3.68c0,0-1.549-0.088-1.963-0.929
		c-0.223-0.469-0.105-0.981,0.181-1.214c0,0,0.02-0.112,0.19-0.292c0.167-0.184,1.024-0.515,2.613-0.499
		c0.535,0.006,2.107,0.026,2.648,0.538l0.089,0.223c0,0,0.66,0.289,0.256,1.057c0,0,0.007,0.351-0.213,0.496
		c-0.229,0.141-0.473,0.581-1.845,0.683l-0.006,3.601c0,0,1.622,0.184,2.074,0.692c0,0,0.095-0.033,0.312,0.21
		c0,0,0.082,0.387,0.154,0.485c0.072,0.092,0.088,0.056,0.204,0.095c0.111,0.04,0.437,0.158,0.407,0.673
		c-0.003,0.115,0.318,0.046,0.318,0.046s-0.072-0.427,0.509-0.562c0,0,0.135-0.295,0.194-0.384c0.056-0.092,0.223-0.2,0.223-0.2
		s0.479-0.657,2.199-0.673l0.105-3.696c0,0,0.01-0.042-0.089-0.062c-0.102-0.017-1.618-0.063-1.946-1.018
		c-0.161-0.459-0.059-0.811,0.02-0.958c0.083-0.145,0.194-0.19,0.194-0.19s0.272-0.742,2.741-0.709
		c0.463,0.01,2.084,0.017,2.662,0.634c0,0,0.131,0.065,0.2,0.098c0.082,0.026,0.528,0.315,0.17,1.093c0,0,0.072,0.354-0.263,0.528
		c-0.331,0.167-0.702,0.558-1.736,0.581l-0.01,3.679c0,0,1.257-0.056,1.986,0.594c0,0,0.161,0,0.25,0.049
		c0.085,0.046,0.341,0.673,0.341,0.673s0.017,0.016,0.102,0.033c0.082,0.013,0.459,0.335,0.446,0.496
		c-0.017,0.161-0.02,0.088,0.115,0.122c0.131,0.033,0.286,0.065,0.295-0.04c0.02-0.105,0.128-0.41,0.502-0.433
		c0.059-0.003,0.354-0.584,0.354-0.584l0.099-0.026c0,0,0.371-0.584,2.121-0.725l0.062-3.634c0,0-1.228-0.069-1.736-0.643
		c-0.233-0.263-0.601-0.781-0.111-1.467c0,0,0.062-0.131,0.075-0.19s0.417-0.788,2.793-0.709c0.45,0.017,2.055-0.046,2.724,0.621
		l0.03,0.167c0,0,0.587,0.187,0.368,1.247c0,0-0.213,0.279-0.391,0.315c0,0-0.138,0.279-0.377,0.302c0,0-0.118-0.049-0.135,0.072
		c-0.017,0.121-0.482,0.318-1.277,0.315l0.007,3.607c0,0,1.595,0.151,2.133,0.708c0,0,0.085,0.135,0.204,0.138
		s0.236,0.538,0.236,0.538s0.377,0.167,0.466,0.423l2.334,0.108c0,0,0.581-1.464,1.834-2.002c0.539-0.23,1.405-0.63,2.941-0.673
		c0.125-0.007,0.624-0.148,1.139-0.122c0.519,0.023,0.505,0.02,0.542,0.213c0.04,0.197,0.029,0.758,0.013,0.873
		c-0.017,0.118-0.512,0.377-0.719,0.387c-0.207,0.01-0.535,0.076-0.653,0.072c-0.049,0-0.65,0.072-1.231,0.131
		C101.65,19.366,100.948,19.619,100.206,20.41z M135.054,31.396l4.28-0.02c0,0,4.215,0.204,4.438,0.099
		c0.22-0.105,0.298-0.141,0.482-0.138c0.187,0.003,6.978,0.407,6.942,7.32c0,0.525,0.059,4.043-1.241,6.108
		c-0.765,1.218-2.304,2.515-4.563,2.908c0,0,0.056-0.617,0.085-1.06c0.033-0.44-0.187-1.651-0.377-1.877
		c-0.193-0.227,0.102-0.197,0.102-0.197s0.203-0.217-0.227-0.84c-0.434-0.627-1.986-2.905-3.256-3.348
		c-0.377-0.134-0.938,0.253-0.561,0.827c0.381,0.575,1.037,1.178,1.136,1.231c0.092,0.049,1.096,1.424,1.195,1.677
		c0.092,0.25-0.01,0.368-0.01,0.368s0.066,0.496,0.233,0.719c0.164,0.227,0.286,0.427,0.039,0.397
		c-0.246-0.029-1.06,0.053-1.06,0.053s-0.147-0.272-0.295-0.371c-0.145-0.095-0.309,0.128-0.309,0.128s-0.125-0.292-0.216-0.591
		c0,0-1.29-3.256-4.947-3.296c0,0-0.315-0.174-0.426-0.174c-0.112-0.006-2.895-0.046-2.895-0.046s-0.115,0.017-0.112-0.259
		c0.01-0.279,0.148-7.595,0.148-7.595s0.243,0.023,0.285-0.252c0.043-0.276,0.059-1.274,0.079-1.349
		c0.023-0.072,0.01-0.128,0.19-0.105c0.184,0.023,0.571,0.049,0.683,0C134.985,31.655,135.054,31.396,135.054,31.396z
		 M87.385,29.893c0,0-0.046-0.102,0.177-0.122c0.223-0.017,0.568-0.059,0.692-0.007c0.122,0.049,0.145,0.151,0.138,0.299
		c-0.003,0.148-0.059,4.034-0.017,4.31c0.043,0.272,0.207,0.598,0.279,0.696c0.079,0.102-0.072,0.046-0.076,0.22
		c-0.01,0.174-0.033,0.17-0.033,0.321c-0.007,0.148,0.315,0.23-0.01,0.345c-0.322,0.115-0.348,0.164-0.352,0.286
		c0,0.125-0.229,0.368-0.499,0.286c-0.266-0.079-0.388-0.229-0.388-0.229s-0.039-0.394-0.213-0.322
		c-0.174,0.069-0.216-0.079-0.069-0.25c0.151-0.167,0.151-0.269-0.016-0.397c-0.171-0.125-0.165-0.125-0.046-0.344
		c0.131-0.22,0.256-0.312,0.315-0.804C87.336,33.684,87.385,29.893,87.385,29.893z"/>
</g>
</svg>
