<?xml version="1.0" encoding="utf-8"?>
<!-- Generator: Adobe Illustrator 16.0.0, SVG Export Plug-In . SVG Version: 6.00 Build 0)  -->
<!DOCTYPE svg PUBLIC "-//W3C//DTD SVG 1.1//EN" "http://www.w3.org/Graphics/SVG/1.1/DTD/svg11.dtd">
<svg version="1.1" xmlns="http://www.w3.org/2000/svg" xmlns:xlink="http://www.w3.org/1999/xlink" x="0px" y="0px"
	 width="123.667px" height="256.366px" viewBox="0 0 123.667 256.366" enable-background="new 0 0 123.667 256.366"
	 xml:space="preserve">
<g id="Layer_1">
</g>
<g id="Layer_2">
	<path fill-rule="evenodd" clip-rule="evenodd" fill="none" stroke="#1A1A1A" stroke-width="0.5" stroke-miterlimit="10" d="
		M65.372,18.187c0,0-3.817,0.178-4.077,0.088c0,0-0.914-0.282-0.979,1.068c0,0,0.241,2.352-1.181,1.328c0,0-0.177-0.559-0.469,0.031
		c0,0-0.543,0.124-0.534,0.452l-2.926,0.598l-1.096-6.581c0,0,1.806-0.558,1.745-1.403l0.125-1.108c0,0,0.208-2.751-0.71-3.042
		c0,0-1.548-0.014-2.147,0.297c0,0-0.582-2.551-1.746-2.269c0,0-1.202-3.437-2.246-3.441l-0.279-0.014c0,0-1.388,0.723-1.69,0.552
		c0,0-1.521,0.457-2.011,0.171c0,0-1.337,0.587-1.218,4.164c0,0-1.792-0.272-2.083,2.956l-1.477,0.114c0,0-1.369,1.156,0.154,3.443
		l0.653-0.012c0,0-0.103,1.481,0.768,1.463l1.623,0.142l-0.058,1.569c0,0-0.032,0.789,0.841,0.776l2.134-0.139
		c0,0-1.157,3.465-2.092,4.62c-0.945,1.152-1.146,3.681-1.146,3.681l-2.9,0.365c0,0-0.462-0.584-0.697-0.19
		c0,0-0.535-0.597-0.672,0.195l-0.508,0.264c0,0-0.911-1.835-1.432-1.453c0,0-2.283,1.31-3.948,1.366
		c-1.688,0.053-2.391,1.966-2.109,2.7c0.273,0.729,0.151,2.498,2.004,2.459c0,0,2.017-0.56,3.07-0.34
		c1.046,0.222,2.452-0.023,2.488-0.585c0,0,0.377-1.904,1.096-0.745c0,0,0.463,0.463,0.543-0.226c0,0,0.659,0.201,0.709-0.436
		l1.996-0.273c0,0-0.02,5.73,0.059,6.082l-3.586,0.604c0,0-0.295-0.557-0.747-0.05c0,0-0.313-0.925-0.729,0.277l-0.481,0.141
		l-0.151-0.188c0,0-0.849-3.301-3.888-1.542c0,0-4.408,0.716-3.561,4.946c0.842,4.23,6.454,2.877,6.454,2.877
		s1.575,0.278,1.528-1.068c0,0-0.04-2.893,0.905-1.634c0,0,0.516,0.559,0.583-0.141c0,0,0.669,0.206,0.603-0.423l3.148-0.715
		l0.65,46.228l0.104,9.847c0,0-23.469,5.157-24.912,29.674c0,0-0.642,5.066,3.76,16.388c0,0,2.355,4.705,0.037,8.672
		c0,0-1.393,2.591,0.976,3.118l0.864-0.236l2.199,1.048c0,0,0.336,1.916,1.162,1.585c0,0,3.142-1.972,3.783-0.324
		c0,0,2.854,3.331,2.181,15.678c-0.111,2-1.326,16.972-9.987,17.877c0,0-2.652-0.034-3.143-0.551c0,0-0.672-0.846-1.209,0.633
		c0,0-0.356,1.84,0.714,3.042c0,0,3.069,3.121,0.161,10.581c0,0-6.553,14.989-1.317,28.73c1.073,2.822,2.684,8.268,9.442,13.41
		c0,0,1.481,1.755,6.701,3.965c0,0-0.281,3.229,1.145,2.598c0,0,3.081-0.193,4.171-0.649c0,0,5.215,1.559,12.452,1.724
		c0,0-0.27,2.435,1.254,1.757c0,0,3.866-0.167,4.15-1.517l4.043-0.254c0,0,0.418,1.651,2.456,0.694c0,0,0.879,0.418-0.763,1.066
		l0.051,0.736c0,0-0.228,1.438,3.242,0.718c3.469-0.723,2.852-1.274,2.852-1.274l0.021-0.785c0,0-1.797-0.487-0.667-0.857
		l0.031-0.784c0,0,21.561-2.288,28.708-9.008c0,0,17.518-10.834,11.885-34.378c-1.654-6.921-6.021-14.006-6.021-14.006
		s-3.71-5.199-1.452-9.685c0,0,1.147-1.801,0.082-2.788c0,0-0.25-1.307-1.49-0.325l-0.497-0.946c0,0-0.742-1.818-1.634-0.793
		c0,0-4.331,3.266-8.058-0.058c0,0-5.079-5.702-6.371-16.126c-0.281-2.3-2.643-12.806,2.792-15.654c0,0,1.845-1.517,4.874-0.356
		c0,0,1.807-1.604-0.021-3.398c0,0-3.03-3.25-0.236-10.315c2.771-7.073,0.241-20.923-3.306-24.337l-1.128-1.501
		c0,0-7.676-16.975-29.117-14.863l-5.453-47.725c0,0,2.616-2.363,2.134-7.054l-0.255-6.363l2.91-0.53l0.22,0.216l0.439-0.012
		c0,0,0.479,0.622,0.492-0.098c0,0,0.375-1.181,1.242-0.046c0,0,0.742,2.142,1.694,1.862c0,0,4.055-0.638,5.012-2.18
		c0,0,1.845-3.723-1.051-5.671c0,0-1.474-0.71-3.214-0.678c0,0,5.675-1.875,5.244-3.738C67.623,20.079,67.747,18.746,65.372,18.187z
		 M60.663,25.983c-1.117-0.024-0.982,2.112-0.982,2.112c-0.043,1.178-0.898,0.801-0.898,0.801c-0.377-0.909-0.763,0.011-0.763,0.011
		c-0.21-0.274-0.67,0.297-0.67,0.297l-2.255,0.413l0.444-4.907l3.15-0.603c0.047,0.409,0.707,0.29,0.707,0.29
		c0.191,0.495,0.302,0.051,0.302,0.051c0.259-1.067,0.966-0.445,0.966-0.445l0.292,0.015c0.126,0.973,1.225,1.72,1.225,1.72
		L60.663,25.983z"/>
</g>
</svg>
